<svg width="9270" height="6754" viewBox="0 0 9270 6754" fill="none" xmlns="http://www.w3.org/2000/svg">
<path d="M2391.66 4365.97L1900.37 3614.59C1893.02 3603.36 1901.08 3588.46 1914.5 3588.46H4290.01C4295.71 3588.46 4301.02 3591.34 4304.14 3596.11L6335.54 6702.95C6342.88 6714.18 6334.82 6729.08 6321.41 6729.08H5395.41C5389.71 6729.08 5384.4 6726.2 5381.28 6721.43L3851.17 4381.26C3848.05 4376.49 3842.73 4373.61 3837.04 4373.61H2405.79C2400.09 4373.61 2394.78 4370.74 2391.66 4365.97Z" fill="#21AF92" stroke="#21AF92" stroke-width="16.8848"/>
<path d="M6321.31 3588.46H5455.45C5449.96 3588.46 5444.82 3591.13 5441.65 3595.61L5090.79 4092.66C5086.87 4098.22 5086.66 4105.58 5090.27 4111.35L5523.34 4804.27C5529.87 4814.71 5545 4814.89 5551.76 4804.61L6335.41 3614.63C6342.8 3603.41 6334.75 3588.46 6321.31 3588.46Z" fill="#39A0FF" stroke="#39A0FF" stroke-width="16.8848"/>
<path d="M5822.64 1228.79L5361.08 1949.98C5357.98 1954.82 5352.89 1957.76 5347.13 1957.76H2819.46C2185.3 1957.76 1881.29 2169.15 1700.1 2289.94C580.744 3105.29 673.362 4373.62 1218.95 5128.57C2344 6516.92 3640.99 5944.61 4164.06 5473.79C4171.77 5466.85 4183.58 5468.56 4189.34 5477.19L4592.74 6082.29C4597.52 6089.47 4596.05 6099.17 4589.39 6104.66C3867.58 6699.85 3057.92 6789.15 2487.27 6729.08C633.739 6445.54 9.00529 4735.99 9 3950.84C39.1982 1987.96 1611.51 1233 2487.27 1202.8H5808.42C5821.76 1202.8 5829.84 1217.55 5822.64 1228.79Z" fill="#39A0FF" stroke="#39A0FF" stroke-width="16.8848"/>
<mask id="mask0_727_572" style="mask-type:luminance" maskUnits="userSpaceOnUse" x="5913" y="0" width="3357" height="4117">
<path d="M8489.11 0.0321771L5913.12 566.724L6694 4116.37L9270 3549.68L8489.11 0.0321771Z" fill="white"/>
</mask>
<g mask="url(#mask0_727_572)">
<path d="M8879.54 1774.87L7338.49 2113.89L6883.91 1253.43L6536.18 595.506C6525.81 575.987 6520.68 554.11 6521.3 532.014C6521.92 509.919 6528.26 488.363 6539.71 469.455C6551.16 450.548 6567.33 434.938 6586.62 424.153C6605.92 413.367 6627.68 407.777 6649.78 407.928L6650.18 407.84C6650.39 407.767 6650.6 407.743 6650.81 407.769C6651.03 407.796 6651.23 407.871 6651.41 407.991C6651.81 407.903 6652.3 408.182 6653.07 408.013C6653.66 408.005 6654.25 408.154 6654.78 408.444C6659.9 408.639 6665 409.145 6670.06 409.96C6679.16 411.623 6688.02 414.389 6696.44 418.197C6703.17 420.59 6709.58 423.788 6715.53 427.723L8608.61 1606.29C8608.82 1606.55 8609.09 1606.76 8609.41 1606.9C8609.72 1607.04 8610.06 1607.1 8610.4 1607.08L8611.83 1608L8879.54 1774.87Z" fill="url(#paint0_linear_727_572)"/>
<path d="M7338.5 2113.88L7268.52 2064.17L7233.57 2039.49L6079.44 1221.72C6065.34 1211.73 6054.72 1197.57 6049.08 1181.24C6043.43 1164.9 6043.04 1147.21 6047.96 1130.64C6052.87 1114.08 6062.86 1099.46 6076.5 1088.86C6090.15 1078.25 6106.77 1072.18 6124.04 1071.51L6267.11 1105.95C6267.51 1105.86 6268.36 1106.06 6268.73 1105.98L6591.5 1183.42L6847.2 1244.82L6883.83 1253.37L7338.5 2113.88Z" fill="url(#paint1_linear_727_572)"/>
<g style="mix-blend-mode:screen" opacity="0.3">
<path d="M8120.41 1820.53L7401.38 1978.71L6773.91 791.901L8120.41 1820.53Z" fill="white"/>
</g>
<g style="mix-blend-mode:multiply" opacity="0.15">
<path d="M7338.5 2113.88L7211.51 1955.79L6591.52 1183.49L6847.23 1244.93L6883.89 1253.43L7338.5 2113.88Z" fill="black"/>
</g>
<g style="mix-blend-mode:screen" opacity="0.5">
<path d="M8608.71 1606.36C8587.83 1596 8465.4 1533.96 8294.5 1437.29C8199.95 1384.38 8090.69 1321.58 7974.78 1252.44C7917.04 1217.83 7856.7 1182.56 7796.31 1145.3C7735.92 1108.04 7674.57 1070.57 7613.12 1033.12C7552.51 994.716 7491.49 956.365 7431.33 918.247C7371.37 880.892 7313.55 842.366 7256.5 805.459C7143.67 731.998 7038.83 661.657 6949.73 600.35C6860.64 539.042 6787.25 486.881 6736.27 449.973C6718.01 434.229 6697.2 421.713 6674.74 412.963C6667.14 410.526 6659.32 408.86 6651.39 407.99C6674.2 408.709 6696.38 415.552 6715.63 427.801L8608.71 1606.36Z" fill="white"/>
</g>
<g style="mix-blend-mode:multiply" opacity="0.25">
<path d="M8879.52 1774.88L7338.47 2113.89L7268.49 2064.17L7211.51 1955.79L7104.31 1751.7C7039.12 1624.48 6973.57 1497.38 6909.34 1369.14C6888.48 1327.61 6867.72 1286.51 6847.26 1244.89L6883.89 1253.43L6536.16 595.509C6611.17 717.727 6681.41 842.187 6754.28 965.683C6825.29 1089.97 6895.59 1214.7 6965.2 1339.86C7034.84 1464.94 7102.87 1590.66 7171.36 1716.31L7359.4 2069.24C7477.99 2043.96 7596.73 2017.45 7715.94 1993.22C7844.74 1966.5 7973.55 1939.82 8102.77 1915.15C8231.34 1889.28 8360.77 1865.41 8490.26 1841.63C8619.9 1819.04 8749.21 1794.63 8879.52 1774.88Z" fill="black"/>
</g>
<g style="mix-blend-mode:multiply" opacity="0.25">
<path d="M7233.57 2039.49L6079.44 1221.72C6065.34 1211.73 6054.72 1197.57 6049.08 1181.24C6043.43 1164.9 6043.04 1147.21 6047.96 1130.64C6052.87 1114.08 6062.86 1099.46 6076.5 1088.86C6090.15 1078.25 6106.77 1072.18 6124.04 1071.51L6267.11 1105.95C6218.9 1099.96 6171.26 1093.06 6123.93 1085.68C6110.7 1087.25 6098.27 1092.88 6088.37 1101.79C6078.46 1110.7 6071.54 1122.46 6068.57 1135.45C6065.5 1147.23 6066.28 1159.69 6070.8 1171.01C6075.32 1182.31 6083.35 1191.88 6093.7 1198.3L6177.73 1253C6206.02 1271.34 6234.39 1289.88 6262.38 1308.79C6318.35 1346.21 6374.69 1383.56 6429.85 1422.88C6485.19 1461.29 6540.96 1499.56 6595.38 1539.33C6649.79 1579.1 6704.89 1617.98 6758.75 1658.71C6812.6 1699.45 6866.74 1739.7 6919.95 1781.2C7026.85 1864.57 7132.36 1948.94 7233.57 2039.49Z" fill="black"/>
</g>
<path d="M8879.53 1774.87L8706.65 2038.57L8705.73 2039.97C8705.41 2040.1 8705.13 2040.31 8704.91 2040.57C8704.68 2040.83 8704.52 2041.14 8704.44 2041.48L7480.74 3905.66C7476.99 3911.75 7472.52 3917.34 7467.42 3922.35C7461.37 3929.34 7454.49 3935.59 7446.93 3940.9C7442.68 3943.77 7438.26 3946.35 7433.69 3948.69C7433.34 3949.19 7432.87 3949.58 7432.32 3949.8C7431.55 3949.97 7431.23 3950.43 7430.83 3950.52C7430.72 3950.72 7430.57 3950.85 7430.38 3950.97C7430.2 3951.08 7430 3951.16 7429.78 3951.17L7429.38 3951.26C7409.38 3960.68 7387.28 3964.73 7365.24 3963.05C7343.2 3961.34 7321.98 3953.96 7303.65 3941.6C7285.32 3929.24 7270.52 3912.35 7260.68 3892.54C7250.85 3872.77 7246.32 3850.74 7247.54 3828.67L7287.06 3085.56L7338.56 2113.77L8879.53 1774.87Z" fill="url(#paint2_linear_727_572)"/>
<path d="M7338.5 2113.89L7286.99 3085.68L7257.33 3108.81L7051 3271.86L6790.53 3477.6C6790.16 3477.68 6789.47 3478.22 6789.07 3478.31L6673.67 3569.62C6657.71 3576.25 6640.07 3577.72 6623.24 3573.82C6606.4 3569.92 6591.21 3560.84 6579.79 3547.87C6568.37 3534.9 6561.3 3518.67 6559.57 3501.47C6557.84 3484.28 6561.54 3466.97 6570.15 3451.99L7274.53 2225.36L7295.9 2188.3L7338.5 2113.89Z" fill="url(#paint3_linear_727_572)"/>
<g style="mix-blend-mode:screen" opacity="0.3">
<path d="M8171.32 2051.98L7452.29 2210.16L7380.82 3550.73L8171.32 2051.98Z" fill="white"/>
</g>
<g style="mix-blend-mode:multiply" opacity="0.15">
<path d="M7338.52 2113.89L7289.61 2310.68L7050.96 3271.87L7257.28 3108.79L7286.98 3085.69L7338.52 2113.89Z" fill="black"/>
</g>
<g style="mix-blend-mode:screen" opacity="0.5">
<path d="M8704.43 2041.48C8689.82 2059.65 8604.73 2167.34 8490.18 2326.81C8426.56 2414.51 8353.75 2517.37 8277.55 2628.77C8239.67 2684.41 8199.7 2741.75 8160.52 2800.92C8121.35 2860.08 8081.38 2919.84 8041.31 2979.58C8002.43 3039.91 7963.14 3100.33 7924.53 3160.18C7885.78 3219.24 7849.46 3278.48 7813.17 3335.92C7741.59 3449.95 7675.94 3557.8 7620.8 3650.8C7565.65 3743.81 7520.94 3822.02 7490.16 3876.91C7480.19 3898.87 7466.56 3918.96 7449.84 3936.33C7443.96 3941.73 7437.56 3946.51 7430.73 3950.64C7451.12 3940.4 7468.39 3924.88 7480.72 3905.67L8704.43 2041.48Z" fill="white"/>
</g>
<g style="mix-blend-mode:multiply" opacity="0.25">
<path d="M7338.48 2113.89L7286.97 3085.68L7257.31 3108.81C7258.41 3062.45 7260.01 3016.4 7261.52 2969.98C7265.99 2826.62 7272.25 2683.72 7277.94 2540.9L7289.6 2310.68L7295.83 2188.38L7338.48 2113.89Z" fill="black"/>
</g>
<g style="mix-blend-mode:multiply" opacity="0.25">
<path d="M7274.49 2225.45L6570.1 3452.07C6561.5 3467.06 6557.8 3484.36 6559.53 3501.56C6561.26 3518.76 6568.33 3534.98 6579.74 3547.95C6591.16 3560.92 6606.35 3570 6623.19 3573.9C6640.03 3577.8 6657.66 3576.33 6673.62 3569.7L6789.03 3478.39C6747.78 3504.07 6707.43 3530.32 6667.58 3556.88C6654.9 3561.01 6641.26 3561.11 6628.52 3557.18C6615.78 3553.24 6604.57 3545.46 6596.43 3534.91C6588.7 3525.51 6584.17 3513.87 6583.53 3501.71C6582.89 3489.55 6586.17 3477.51 6592.88 3467.35L6646.19 3382.43C6664.17 3353.91 6682.14 3325.17 6699.61 3296.27C6734.71 3238.81 6770.17 3181.27 6803.74 3122.43C6837.86 3064.38 6872.42 3006.23 6905.11 2947.26C6937.81 2888.3 6971.52 2829.95 7003.31 2770.37C7035.09 2710.8 7067.34 2651.55 7098.19 2591.37C7160.26 2470.97 7220.62 2350.11 7274.49 2225.45Z" fill="black"/>
</g>
<g style="mix-blend-mode:screen" opacity="0.5">
<path d="M8879.52 1774.88C8752.95 1811.6 8625.34 1843.75 8498.17 1877.76C8370.73 1910.67 8243.2 1943.15 8115.61 1973.68C7987.92 2005.28 7859.82 2035.18 7731.73 2065.15C7613.36 2093.22 7494.35 2118.98 7376.2 2145.78L7353.62 2544.76C7344.17 2687.55 7335.14 2830.3 7324.47 2972.98C7313.81 3115.66 7302.34 3258.48 7290.05 3401.13C7275.81 3543.79 7264.22 3686.25 7247.42 3828.66L7286.94 3085.55L7338.44 2113.76L8879.52 1774.88Z" fill="white"/>
</g>
</g>
<defs>
<linearGradient id="paint0_linear_727_572" x1="7488.26" y1="197.892" x2="7891.59" y2="2031.29" gradientUnits="userSpaceOnUse">
<stop stop-color="#1E293B"/>
<stop offset="1" stop-color="#39A0FF"/>
</linearGradient>
<linearGradient id="paint1_linear_727_572" x1="6166.22" y1="1716.34" x2="7200.96" y2="1488.7" gradientUnits="userSpaceOnUse">
<stop offset="0.484375" stop-color="#21AF92"/>
<stop offset="0.983" stop-color="#275E53"/>
</linearGradient>
<linearGradient id="paint2_linear_727_572" x1="7878.73" y1="1972.61" x2="8282.06" y2="3806.01" gradientUnits="userSpaceOnUse">
<stop stop-color="#39A0FF"/>
<stop offset="1" stop-color="#1E293B"/>
</linearGradient>
<linearGradient id="paint3_linear_727_572" x1="6441.34" y1="2966.65" x2="7476.02" y2="2739.03" gradientUnits="userSpaceOnUse">
<stop offset="0.484375" stop-color="#21AF92"/>
<stop offset="0.983" stop-color="#275E53"/>
</linearGradient>
</defs>
</svg>
