<svg xmlns="http://www.w3.org/2000/svg" xmlns:xlink="http://www.w3.org/1999/xlink" width="300" zoomAndPan="magnify" viewBox="0 0 224.87999 225" height="300" preserveAspectRatio="xMidYMid meet" version="1.0"><defs><clipPath id="1817dcecd8"><path d="M 139 107 L 174 107 L 174 207 L 139 207 Z M 139 107 " clip-rule="nonzero"/></clipPath><clipPath id="a76395fcc0"><path d="M 126.238281 117.714844 L 171.570312 107.460938 L 191.582031 195.929688 L 146.25 206.183594 Z M 126.238281 117.714844 " clip-rule="nonzero"/></clipPath><clipPath id="48984a71ed"><path d="M 126.238281 117.714844 L 171.570312 107.460938 L 191.582031 195.929688 L 146.25 206.183594 Z M 126.238281 117.714844 " clip-rule="nonzero"/></clipPath><clipPath id="ec04c8f207"><path d="M 139 111 L 157 111 L 157 207 L 139 207 Z M 139 111 " clip-rule="nonzero"/></clipPath><clipPath id="42640e6fb8"><path d="M 126.238281 117.714844 L 171.570312 107.460938 L 191.582031 195.929688 L 146.25 206.183594 Z M 126.238281 117.714844 " clip-rule="nonzero"/></clipPath><clipPath id="e29a9ee8be"><path d="M 126.238281 117.714844 L 171.570312 107.460938 L 191.582031 195.929688 L 146.25 206.183594 Z M 126.238281 117.714844 " clip-rule="nonzero"/></clipPath><clipPath id="64f0c9e9b1"><path d="M 0 11 L 196 11 L 196 224.9375 L 0 224.9375 Z M 0 11 " clip-rule="nonzero"/></clipPath><clipPath id="eef2c227d8"><path d="M 124 0.0585938 L 224 0.0585938 L 224 123 L 124 123 Z M 124 0.0585938 " clip-rule="nonzero"/></clipPath></defs><g clip-path="url(#1817dcecd8)"><g clip-path="url(#a76395fcc0)"><g clip-path="url(#48984a71ed)"><path fill="#39a0ff" d="M 148.710938 112.632812 L 171.5625 107.464844 L 160.339844 142.070312 L 173.734375 139.039062 L 146.269531 206.179688 L 154.222656 157.125 L 139.808594 161.140625 Z M 148.710938 112.632812 " fill-opacity="1" fill-rule="nonzero"/></g></g></g><g clip-path="url(#ec04c8f207)"><g clip-path="url(#42640e6fb8)"><g clip-path="url(#e29a9ee8be)"><path fill="#39a0ff" d="M 148.710938 112.632812 L 152.652344 111.742188 L 139.808594 161.140625 Z M 146.269531 206.179688 L 156.980469 156.503906 L 154.222656 157.125 Z M 146.269531 206.179688 " fill-opacity="1" fill-rule="nonzero"/></g></g></g><g clip-path="url(#64f0c9e9b1)"><path stroke-linecap="butt" transform="matrix(0.68092, 0, 0, 0.68092, -29.149105, 38.308117)" fill="none" stroke-linejoin="miter" d="M 168.482732 114.746588 L 257.029017 114.746588 L 232.785635 230.146463 C 208.593884 237.982824 183.386732 241.901004 157.164182 241.901004 C 131.9054 241.901004 112.308762 234.546528 98.374268 219.837576 C 84.439773 205.128624 77.469657 184.275644 77.469657 157.278636 C 77.469657 131.440446 82.793334 108.114939 93.440688 87.31359 C 104.082305 66.506503 118.670786 50.661681 137.200394 39.773385 C 155.735738 28.885089 177.288598 23.440941 201.870447 23.440941 C 227.611113 23.440941 249.290181 28.6212 266.901913 38.97598 L 245.561312 83.825663 C 230.754836 75.117321 215.94836 70.76315 201.141883 70.76315 C 188.371943 70.76315 177.070603 74.274023 167.249337 81.290033 C 157.428071 88.306042 149.59171 98.68377 143.734519 112.423216 C 137.883063 126.162663 134.951599 140.825721 134.951599 156.406654 C 134.951599 181.952272 145.065438 194.727949 165.293115 194.727949 C 171.385513 194.727949 177.822113 194.051016 184.597181 192.69715 L 191.99755 159.016862 L 158.75899 159.016862 Z M 168.482732 114.746588 " stroke="#39a0ff" stroke-width="11.148112" stroke-opacity="1" stroke-miterlimit="4"/></g><g clip-path="url(#eef2c227d8)"><path stroke-linecap="butt" transform="matrix(0.667751, -0.133271, 0.133271, 0.667751, 104.590331, 21.667912)" fill="none" stroke-linejoin="miter" d="M 90.422837 61.306487 L 125.091773 14.073602 L 136.213025 14.070248 L 94.843029 69.231904 L 119.373878 124.998177 L 109.318059 124.997727 L 88.823386 76.23785 L 52.942248 125.001309 L 41.816493 124.997915 L 84.4842 68.3169 L 60.714507 14.071407 L 70.845707 14.075202 Z M 90.422837 61.306487 " stroke="#39a0ff" stroke-width="5.8512" stroke-opacity="1" stroke-miterlimit="4"/></g></svg>